<svg xmlns="http://www.w3.org/2000/svg" viewBox="0 0 100 100" width="100" height="100">
  <!-- Drawn by hand, like the bolt: the lens is not a circle and the handle is not straight. A
       perfect ring with a 45-degree stick is every search icon ever shipped; the wobble is the
       whole point. Used as a mask, so it takes theme colour from the element behind it. -->
  <path
    d="M 43,7
       C 24,6 8,22 7,40
       C 6,59 21,75 40,76
       C 48,76 56,73 62,68
       L 84,93
       L 93,84
       L 70,61
       C 75,55 78,47 77,39
       C 76,21 61,7 43,7
       Z
       M 42,18
       C 55,18 66,28 66,41
       C 67,54 56,65 43,65
       C 30,65 19,55 18,42
       C 17,29 28,18 42,18
       Z"
    fill="#000"
    fill-rule="evenodd"
  />
</svg>
