<svg xmlns="http://www.w3.org/2000/svg" width="520" height="520"><circle cx="282.4" cy="499.7" r="0.88" fill="#2b2620" opacity="0.28"/><circle cx="234.1" cy="364.8" r="1.16" fill="#2b2620" opacity="0.50"/><circle cx="311.3" cy="114.3" r="0.48" fill="#2b2620" opacity="0.37"/><circle cx="35.9" cy="397.6" r="0.42" fill="#2b2620" opacity="0.28"/><circle cx="256.1" cy="271.0" r="1.27" fill="#2b2620" opacity="0.46"/><circle cx="207.5" cy="349.5" r="0.44" fill="#2b2620" opacity="0.56"/><circle cx="26.4" cy="472.1" r="2.34" fill="#2b2620" opacity="0.53"/><circle cx="50.6" cy="131.8" r="0.54" fill="#2b2620" opacity="0.28"/><circle cx="490.8" cy="454.4" r="0.91" fill="#2b2620" opacity="0.46"/><circle cx="89.8" cy="230.2" r="1.80" fill="#2b2620" opacity="0.48"/><circle cx="91.5" cy="436.9" r="0.84" fill="#2b2620" opacity="0.31"/><circle cx="265.0" cy="149.7" r="0.40" fill="#2b2620" opacity="0.56"/><circle cx="250.5" cy="142.9" r="0.42" fill="#2b2620" opacity="0.32"/><circle cx="499.3" cy="272.4" r="0.64" fill="#2b2620" opacity="0.25"/><circle cx="349.0" cy="116.3" r="0.81" fill="#2b2620" opacity="0.56"/><circle cx="345.1" cy="218.5" r="0.67" fill="#2b2620" opacity="0.30"/><circle cx="335.3" cy="351.9" r="0.46" fill="#2b2620" opacity="0.25"/><circle cx="450.0" cy="18.6" r="0.40" fill="#2b2620" opacity="0.22"/><circle cx="316.3" cy="136.2" r="0.50" fill="#2b2620" opacity="0.56"/><circle cx="113.6" cy="391.8" r="2.18" fill="#2b2620" opacity="0.49"/><circle cx="310.7" cy="102.0" r="1.70" fill="#2b2620" opacity="0.51"/><circle cx="176.3" cy="79.2" r="2.07" fill="#2b2620" opacity="0.27"/><circle cx="463.3" cy="279.3" r="0.91" fill="#2b2620" opacity="0.41"/><circle cx="505.5" cy="117.2" r="1.35" fill="#2b2620" opacity="0.21"/><circle cx="184.9" cy="376.4" r="1.67" fill="#2b2620" opacity="0.51"/><circle cx="428.5" cy="488.9" r="2.04" fill="#2b2620" opacity="0.42"/><circle cx="402.6" cy="49.7" r="0.64" fill="#2b2620" opacity="0.54"/><circle cx="268.8" cy="32.1" r="0.42" fill="#2b2620" opacity="0.35"/><circle cx="35.3" cy="32.5" r="1.99" fill="#2b2620" opacity="0.54"/><circle cx="241.5" cy="432.1" r="0.41" fill="#2b2620" opacity="0.49"/><circle cx="99.8" cy="114.3" r="0.54" fill="#2b2620" opacity="0.23"/><circle cx="322.6" cy="508.5" r="1.66" fill="#2b2620" opacity="0.41"/><circle cx="345.2" cy="82.5" r="1.47" fill="#2b2620" opacity="0.54"/><circle cx="376.3" cy="206.3" r="0.41" fill="#2b2620" opacity="0.44"/><circle cx="34.9" cy="3.2" r="0.98" fill="#2b2620" opacity="0.51"/><circle cx="155.1" cy="185.0" r="0.40" fill="#2b2620" opacity="0.20"/><circle cx="494.3" cy="131.7" r="0.44" fill="#2b2620" opacity="0.20"/><circle cx="484.8" cy="160.3" r="1.98" fill="#2b2620" opacity="0.44"/><circle cx="330.7" cy="317.8" r="0.55" fill="#2b2620" opacity="0.58"/><circle cx="378.1" cy="401.7" r="2.39" fill="#2b2620" opacity="0.48"/><circle cx="356.7" cy="284.5" r="1.71" fill="#2b2620" opacity="0.28"/><circle cx="252.6" cy="160.2" r="0.93" fill="#2b2620" opacity="0.39"/><circle cx="415.0" cy="510.1" r="0.53" fill="#2b2620" opacity="0.36"/><circle cx="244.2" cy="186.2" r="0.47" fill="#2b2620" opacity="0.47"/><circle cx="163.2" cy="438.6" r="1.59" fill="#2b2620" opacity="0.38"/><circle cx="183.7" cy="420.0" r="0.51" fill="#2b2620" opacity="0.54"/><circle cx="73.5" cy="6.3" r="0.60" fill="#2b2620" opacity="0.41"/><circle cx="308.6" cy="136.2" r="0.44" fill="#2b2620" opacity="0.52"/><circle cx="6.4" cy="85.3" r="2.00" fill="#2b2620" opacity="0.31"/><circle cx="283.5" cy="258.8" r="1.05" fill="#2b2620" opacity="0.56"/><circle cx="70.0" cy="172.4" r="2.11" fill="#2b2620" opacity="0.34"/><circle cx="401.2" cy="232.6" r="1.14" fill="#2b2620" opacity="0.57"/><circle cx="408.7" cy="453.5" r="0.94" fill="#2b2620" opacity="0.36"/><circle cx="452.1" cy="401.4" r="1.31" fill="#2b2620" opacity="0.52"/><circle cx="145.9" cy="167.2" r="0.49" fill="#2b2620" opacity="0.37"/><circle cx="0.2" cy="221.6" r="0.50" fill="#2b2620" opacity="0.36"/><circle cx="142.3" cy="117.7" r="0.66" fill="#2b2620" opacity="0.28"/><circle cx="179.9" cy="98.0" r="1.62" fill="#2b2620" opacity="0.37"/><circle cx="134.8" cy="480.2" r="0.76" fill="#2b2620" opacity="0.57"/><circle cx="186.1" cy="13.0" r="2.47" fill="#2b2620" opacity="0.54"/><circle cx="61.9" cy="363.5" r="1.37" fill="#2b2620" opacity="0.29"/><circle cx="454.8" cy="373.7" r="1.50" fill="#2b2620" opacity="0.59"/><circle cx="474.0" cy="355.1" r="0.42" fill="#2b2620" opacity="0.43"/><circle cx="237.8" cy="160.9" r="0.55" fill="#2b2620" opacity="0.50"/><circle cx="52.9" cy="53.8" r="1.27" fill="#2b2620" opacity="0.58"/><circle cx="91.4" cy="350.4" r="2.55" fill="#2b2620" opacity="0.30"/><circle cx="518.2" cy="438.1" r="2.59" fill="#2b2620" opacity="0.50"/><circle cx="477.5" cy="175.0" r="2.44" fill="#2b2620" opacity="0.23"/><circle cx="356.5" cy="213.9" r="1.83" fill="#2b2620" opacity="0.39"/><circle cx="51.2" cy="475.5" r="1.96" fill="#2b2620" opacity="0.30"/><ellipse cx="167.5" cy="471.5" rx="2.44" ry="1.95" fill="#2b2620" opacity="0.18" transform="rotate(84 167.5 471.5)"/><ellipse cx="447.7" cy="454.9" rx="6.55" ry="5.79" fill="#2b2620" opacity="0.23" transform="rotate(45 447.7 454.9)"/><ellipse cx="95.5" cy="470.1" rx="6.72" ry="1.93" fill="#2b2620" opacity="0.14" transform="rotate(124 95.5 470.1)"/><ellipse cx="393.1" cy="257.2" rx="6.02" ry="1.86" fill="#2b2620" opacity="0.18" transform="rotate(22 393.1 257.2)"/><ellipse cx="393.7" cy="99.7" rx="5.81" ry="4.04" fill="#2b2620" opacity="0.24" transform="rotate(65 393.7 99.7)"/><ellipse cx="431.3" cy="22.9" rx="6.77" ry="4.07" fill="#2b2620" opacity="0.22" transform="rotate(24 431.3 22.9)"/><ellipse cx="470.0" cy="412.0" rx="3.87" ry="1.95" fill="#2b2620" opacity="0.23" transform="rotate(118 470.0 412.0)"/><ellipse cx="429.0" cy="208.1" rx="4.43" ry="4.63" fill="#2b2620" opacity="0.12" transform="rotate(55 429.0 208.1)"/><ellipse cx="426.2" cy="294.4" rx="3.55" ry="4.05" fill="#2b2620" opacity="0.18" transform="rotate(124 426.2 294.4)"/><ellipse cx="168.5" cy="55.6" rx="4.79" ry="2.52" fill="#2b2620" opacity="0.23" transform="rotate(43 168.5 55.6)"/><ellipse cx="409.4" cy="250.3" rx="2.68" ry="3.12" fill="#2b2620" opacity="0.19" transform="rotate(54 409.4 250.3)"/><ellipse cx="236.0" cy="431.9" rx="6.87" ry="2.63" fill="#2b2620" opacity="0.21" transform="rotate(37 236.0 431.9)"/><ellipse cx="409.2" cy="420.9" rx="5.71" ry="1.97" fill="#2b2620" opacity="0.14" transform="rotate(67 409.2 420.9)"/><ellipse cx="195.4" cy="497.4" rx="4.11" ry="4.96" fill="#2b2620" opacity="0.24" transform="rotate(92 195.4 497.4)"/><ellipse cx="330.9" cy="216.5" rx="3.41" ry="4.47" fill="#2b2620" opacity="0.21" transform="rotate(52 330.9 216.5)"/><ellipse cx="377.1" cy="95.1" rx="2.09" ry="5.26" fill="#2b2620" opacity="0.16" transform="rotate(163 377.1 95.1)"/><ellipse cx="367.8" cy="462.0" rx="3.55" ry="5.21" fill="#2b2620" opacity="0.24" transform="rotate(37 367.8 462.0)"/><ellipse cx="102.0" cy="26.0" rx="2.41" ry="5.42" fill="#2b2620" opacity="0.16" transform="rotate(117 102.0 26.0)"/><path d="M188.6,330.3L182.4,338.1L174.6,348.5L164.1,340.6L157.2,334.3L156.1,326.0L164.6,321.3L174.6,311.4L184.0,322.0Z" fill="#2b2620" opacity="0.06"/><path d="M451.9,237.7L447.8,251.2L434.8,246.3L429.7,240.6L429.1,233.4L435.2,226.7L445.6,226.8Z" fill="#2b2620" opacity="0.09"/><path d="M151.5,361.4L151.0,367.6L142.4,370.8L133.3,366.2L138.4,358.5L142.9,353.8L149.3,355.6Z" fill="#2b2620" opacity="0.09"/><path d="M471.5,385.8L463.6,391.9L456.9,398.3L442.8,406.0L434.4,393.3L433.8,378.8L444.8,371.1L456.5,376.0L466.2,375.9Z" fill="#2b2620" opacity="0.08"/><path d="M137.8,338.2L139.7,354.8L124.4,351.4L112.6,349.1L106.0,338.2L107.8,320.1L124.4,315.0L140.5,325.7Z" fill="#2b2620" opacity="0.07"/></svg>
