<svg xmlns="http://www.w3.org/2000/svg" width="520" height="520"><circle cx="455.2" cy="515.0" r="0.87" fill="#d0cabc" opacity="0.43"/><circle cx="219.1" cy="255.6" r="2.12" fill="#d0cabc" opacity="0.50"/><circle cx="233.1" cy="512.1" r="0.76" fill="#d0cabc" opacity="0.53"/><circle cx="410.2" cy="254.5" r="0.59" fill="#d0cabc" opacity="0.30"/><circle cx="405.8" cy="193.9" r="0.48" fill="#d0cabc" opacity="0.19"/><circle cx="337.5" cy="384.8" r="0.49" fill="#d0cabc" opacity="0.34"/><circle cx="20.2" cy="479.1" r="1.30" fill="#d0cabc" opacity="0.28"/><circle cx="10.1" cy="176.6" r="2.18" fill="#d0cabc" opacity="0.60"/><circle cx="299.5" cy="459.6" r="0.49" fill="#d0cabc" opacity="0.52"/><circle cx="407.2" cy="355.7" r="2.40" fill="#d0cabc" opacity="0.25"/><circle cx="112.5" cy="518.6" r="1.45" fill="#d0cabc" opacity="0.40"/><circle cx="304.5" cy="52.7" r="2.31" fill="#d0cabc" opacity="0.19"/><circle cx="449.3" cy="359.2" r="0.56" fill="#d0cabc" opacity="0.18"/><circle cx="76.7" cy="341.9" r="0.41" fill="#d0cabc" opacity="0.28"/><circle cx="217.9" cy="27.0" r="1.59" fill="#d0cabc" opacity="0.53"/><circle cx="202.4" cy="158.5" r="2.00" fill="#d0cabc" opacity="0.44"/><circle cx="186.1" cy="62.5" r="0.59" fill="#d0cabc" opacity="0.30"/><circle cx="208.1" cy="226.1" r="2.59" fill="#d0cabc" opacity="0.27"/><circle cx="116.8" cy="443.0" r="0.66" fill="#d0cabc" opacity="0.55"/><circle cx="408.4" cy="432.0" r="0.69" fill="#d0cabc" opacity="0.24"/><circle cx="227.0" cy="353.5" r="1.28" fill="#d0cabc" opacity="0.57"/><circle cx="256.7" cy="234.7" r="0.51" fill="#d0cabc" opacity="0.58"/><circle cx="186.9" cy="269.1" r="0.52" fill="#d0cabc" opacity="0.46"/><circle cx="196.1" cy="203.5" r="0.74" fill="#d0cabc" opacity="0.52"/><circle cx="131.7" cy="120.5" r="1.67" fill="#d0cabc" opacity="0.30"/><circle cx="433.8" cy="276.8" r="0.43" fill="#d0cabc" opacity="0.34"/><circle cx="442.9" cy="429.6" r="0.66" fill="#d0cabc" opacity="0.52"/><circle cx="437.5" cy="281.5" r="0.54" fill="#d0cabc" opacity="0.28"/><circle cx="267.5" cy="280.6" r="0.42" fill="#d0cabc" opacity="0.26"/><circle cx="215.4" cy="121.6" r="0.79" fill="#d0cabc" opacity="0.28"/><circle cx="222.5" cy="96.7" r="1.62" fill="#d0cabc" opacity="0.53"/><circle cx="329.2" cy="517.4" r="1.16" fill="#d0cabc" opacity="0.58"/><circle cx="222.4" cy="27.3" r="1.88" fill="#d0cabc" opacity="0.36"/><circle cx="43.1" cy="478.7" r="0.87" fill="#d0cabc" opacity="0.42"/><circle cx="24.8" cy="292.0" r="1.62" fill="#d0cabc" opacity="0.42"/><circle cx="422.4" cy="419.2" r="1.24" fill="#d0cabc" opacity="0.27"/><circle cx="462.6" cy="472.6" r="2.19" fill="#d0cabc" opacity="0.36"/><circle cx="41.8" cy="499.6" r="0.53" fill="#d0cabc" opacity="0.36"/><circle cx="390.0" cy="255.2" r="0.40" fill="#d0cabc" opacity="0.32"/><circle cx="485.1" cy="142.4" r="0.49" fill="#d0cabc" opacity="0.59"/><circle cx="71.9" cy="467.8" r="2.46" fill="#d0cabc" opacity="0.33"/><circle cx="41.9" cy="84.8" r="0.41" fill="#d0cabc" opacity="0.35"/><circle cx="2.8" cy="20.7" r="0.42" fill="#d0cabc" opacity="0.59"/><circle cx="259.9" cy="21.3" r="2.07" fill="#d0cabc" opacity="0.34"/><circle cx="208.1" cy="65.6" r="0.93" fill="#d0cabc" opacity="0.35"/><circle cx="101.3" cy="285.4" r="0.46" fill="#d0cabc" opacity="0.31"/><circle cx="244.5" cy="92.4" r="0.59" fill="#d0cabc" opacity="0.53"/><circle cx="494.0" cy="152.7" r="0.45" fill="#d0cabc" opacity="0.23"/><circle cx="392.7" cy="408.4" r="1.81" fill="#d0cabc" opacity="0.58"/><circle cx="282.9" cy="404.2" r="0.98" fill="#d0cabc" opacity="0.36"/><circle cx="182.0" cy="97.3" r="0.99" fill="#d0cabc" opacity="0.36"/><circle cx="370.0" cy="502.0" r="1.18" fill="#d0cabc" opacity="0.38"/><circle cx="491.2" cy="156.1" r="1.10" fill="#d0cabc" opacity="0.57"/><circle cx="201.0" cy="421.7" r="0.84" fill="#d0cabc" opacity="0.20"/><circle cx="429.0" cy="448.8" r="0.41" fill="#d0cabc" opacity="0.57"/><circle cx="332.9" cy="223.7" r="0.42" fill="#d0cabc" opacity="0.20"/><circle cx="399.0" cy="10.4" r="1.83" fill="#d0cabc" opacity="0.37"/><circle cx="30.1" cy="325.8" r="1.16" fill="#d0cabc" opacity="0.23"/><circle cx="213.8" cy="263.8" r="0.88" fill="#d0cabc" opacity="0.53"/><circle cx="107.5" cy="481.9" r="1.19" fill="#d0cabc" opacity="0.46"/><circle cx="302.4" cy="247.8" r="0.75" fill="#d0cabc" opacity="0.29"/><circle cx="191.0" cy="288.1" r="1.70" fill="#d0cabc" opacity="0.46"/><circle cx="197.0" cy="402.6" r="0.76" fill="#d0cabc" opacity="0.57"/><circle cx="32.6" cy="373.7" r="1.43" fill="#d0cabc" opacity="0.42"/><circle cx="267.0" cy="327.4" r="1.59" fill="#d0cabc" opacity="0.27"/><circle cx="253.6" cy="91.3" r="1.74" fill="#d0cabc" opacity="0.25"/><circle cx="147.3" cy="182.7" r="1.25" fill="#d0cabc" opacity="0.22"/><circle cx="425.9" cy="256.6" r="0.65" fill="#d0cabc" opacity="0.36"/><circle cx="157.2" cy="518.6" r="0.89" fill="#d0cabc" opacity="0.38"/><circle cx="296.5" cy="0.5" r="0.41" fill="#d0cabc" opacity="0.56"/><ellipse cx="504.4" cy="181.8" rx="3.94" ry="1.48" fill="#d0cabc" opacity="0.15" transform="rotate(20 504.4 181.8)"/><ellipse cx="255.7" cy="445.5" rx="5.75" ry="5.85" fill="#d0cabc" opacity="0.18" transform="rotate(37 255.7 445.5)"/><ellipse cx="200.3" cy="8.9" rx="6.09" ry="3.26" fill="#d0cabc" opacity="0.16" transform="rotate(22 200.3 8.9)"/><ellipse cx="507.0" cy="166.8" rx="2.90" ry="3.06" fill="#d0cabc" opacity="0.21" transform="rotate(70 507.0 166.8)"/><ellipse cx="210.7" cy="68.3" rx="4.28" ry="3.71" fill="#d0cabc" opacity="0.08" transform="rotate(145 210.7 68.3)"/><ellipse cx="474.1" cy="248.2" rx="4.62" ry="1.63" fill="#d0cabc" opacity="0.17" transform="rotate(155 474.1 248.2)"/><ellipse cx="437.8" cy="82.4" rx="6.04" ry="2.62" fill="#d0cabc" opacity="0.17" transform="rotate(95 437.8 82.4)"/><ellipse cx="510.7" cy="225.2" rx="2.37" ry="2.91" fill="#d0cabc" opacity="0.09" transform="rotate(86 510.7 225.2)"/><ellipse cx="414.2" cy="390.6" rx="2.26" ry="5.63" fill="#d0cabc" opacity="0.14" transform="rotate(137 414.2 390.6)"/><ellipse cx="375.9" cy="145.6" rx="3.83" ry="5.20" fill="#d0cabc" opacity="0.20" transform="rotate(118 375.9 145.6)"/><ellipse cx="231.6" cy="357.7" rx="3.48" ry="4.84" fill="#d0cabc" opacity="0.15" transform="rotate(163 231.6 357.7)"/><ellipse cx="307.1" cy="200.2" rx="2.27" ry="2.32" fill="#d0cabc" opacity="0.17" transform="rotate(157 307.1 200.2)"/><ellipse cx="208.2" cy="5.6" rx="6.35" ry="3.96" fill="#d0cabc" opacity="0.17" transform="rotate(45 208.2 5.6)"/><ellipse cx="122.0" cy="361.4" rx="6.50" ry="1.95" fill="#d0cabc" opacity="0.24" transform="rotate(30 122.0 361.4)"/><ellipse cx="50.3" cy="449.0" rx="5.89" ry="3.30" fill="#d0cabc" opacity="0.22" transform="rotate(94 50.3 449.0)"/><ellipse cx="255.8" cy="393.5" rx="3.66" ry="4.20" fill="#d0cabc" opacity="0.09" transform="rotate(28 255.8 393.5)"/><ellipse cx="122.0" cy="192.6" rx="4.35" ry="4.49" fill="#d0cabc" opacity="0.08" transform="rotate(148 122.0 192.6)"/><ellipse cx="467.2" cy="508.7" rx="2.26" ry="1.98" fill="#d0cabc" opacity="0.12" transform="rotate(158 467.2 508.7)"/><path d="M453.4,451.5L448.8,460.4L437.9,462.0L429.1,457.9L425.3,451.5L429.0,444.8L437.9,444.0L446.4,442.8Z" fill="#d0cabc" opacity="0.08"/><path d="M109.5,52.0L107.0,58.8L98.7,61.2L93.1,57.0L91.0,52.0L92.0,46.8L98.7,40.2L106.1,44.5Z" fill="#d0cabc" opacity="0.06"/><path d="M127.2,386.5L130.0,393.3L122.4,396.3L114.4,397.0L112.5,388.8L111.9,384.0L114.9,377.1L122.3,373.9L127.1,380.0Z" fill="#d0cabc" opacity="0.08"/><path d="M70.2,374.9L67.9,379.8L63.8,386.4L54.9,385.6L48.5,379.5L48.2,370.4L54.9,364.8L63.5,365.3L70.1,368.4Z" fill="#d0cabc" opacity="0.10"/><path d="M344.7,53.8L341.0,62.3L330.8,62.1L323.6,57.8L323.3,49.1L331.2,46.6L340.9,43.3Z" fill="#d0cabc" opacity="0.06"/></svg>
