<svg xmlns="http://www.w3.org/2000/svg" width="1200" height="44" viewBox="0 0 1200 44" preserveAspectRatio="none"><path d="M0,44 L0.0,20.0 L4.6,20.0L9.2,20.0L13.8,20.0L18.5,19.9L23.1,19.9L27.7,19.6L32.3,19.7L36.9,20.1L41.5,19.9L46.2,19.6L50.8,19.1L55.4,19.6L60.0,20.5L64.6,20.0L69.2,21.2L73.8,21.2L78.5,22.5L83.1,23.8L87.7,23.6L92.3,22.0L96.9,23.0L101.5,20.2L106.2,21.2L110.8,20.7L115.4,21.3L120.0,21.4L124.6,22.8L129.2,23.5L133.8,26.1L138.5,26.2L143.1,25.2L147.7,26.0L152.3,25.9L156.9,28.3L161.5,28.5L166.2,28.1L170.8,27.9L175.4,29.9L180.0,30.7L184.6,32.6L189.2,33.2L193.8,31.4L198.5,30.0L203.1,30.5L207.7,29.6L212.3,28.2L216.9,28.9L221.5,25.4L226.2,24.7L230.8,25.5L235.4,26.1L240.0,24.2L244.6,22.9L249.2,24.4L253.8,22.0L258.5,22.5L263.1,23.1L267.7,20.8L272.3,22.3L276.9,19.3L281.5,21.7L286.2,23.5L290.8,22.9L295.4,21.7L300.0,21.4L304.6,19.6L309.2,16.7L313.8,18.5L318.5,16.6L323.1,14.9L327.7,14.8L332.3,15.7L336.9,17.0L341.5,17.6L346.2,15.6L350.8,15.9L355.4,14.1L360.0,13.8L364.6,15.2L369.2,14.7L373.8,15.0L378.5,15.3L383.1,16.9L387.7,20.6L392.3,19.3L396.9,19.0L401.5,21.5L406.2,19.3L410.8,17.8L415.4,17.7L420.0,19.0L424.6,18.5L429.2,18.1L433.8,17.4L438.5,17.4L443.1,19.0L447.7,16.2L452.3,15.9L456.9,13.7L461.5,13.3L466.2,15.6L470.8,13.6L475.4,11.9L480.0,12.1L484.6,15.1L489.2,13.4L493.8,15.2L498.5,14.8L503.1,16.2L507.7,13.5L512.3,15.0L516.9,13.9L521.5,12.5L526.2,11.8L530.8,12.6L535.4,12.0L540.0,11.9L544.6,13.0L549.2,12.8L553.8,13.6L558.5,12.3L563.1,12.1L567.7,12.5L572.3,12.1L576.9,12.8L581.5,13.2L586.2,13.7L590.8,16.8L595.4,16.2L600.0,19.5L604.6,21.2L609.2,21.7L613.8,20.7L618.5,21.4L623.1,22.6L627.7,21.9L632.3,22.4L636.9,22.2L641.5,22.8L646.2,26.9L650.8,25.9L655.4,26.5L660.0,24.8L664.6,26.0L669.2,25.6L673.8,23.6L678.5,23.9L683.1,24.5L687.7,23.4L692.3,26.8L696.9,27.8L701.5,27.9L706.2,29.1L710.8,28.1L715.4,28.6L720.0,28.2L724.6,26.6L729.2,27.9L733.8,27.1L738.5,24.8L743.1,27.0L747.7,26.6L752.3,25.2L756.9,24.0L761.5,25.0L766.2,23.3L770.8,24.5L775.4,21.7L780.0,20.3L784.6,19.5L789.2,20.2L793.8,21.0L798.5,19.9L803.1,22.4L807.7,23.0L812.3,21.7L816.9,24.5L821.5,23.6L826.2,24.2L830.8,25.3L835.4,23.2L840.0,23.1L844.6,25.4L849.2,24.6L853.8,26.7L858.5,27.0L863.1,25.8L867.7,26.2L872.3,25.0L876.9,23.4L881.5,24.5L886.2,23.2L890.8,20.1L895.4,20.7L900.0,23.9L904.6,22.9L909.2,22.1L913.8,24.6L918.5,23.0L923.1,25.1L927.7,23.8L932.3,23.2L936.9,22.8L941.5,19.8L946.2,21.0L950.8,22.8L955.4,20.2L960.0,20.6L964.6,20.0L969.2,18.6L973.8,16.9L978.5,18.1L983.1,16.5L987.7,13.8L992.3,10.2L996.9,10.5L1001.5,10.9L1006.2,10.8L1010.8,10.2L1015.4,9.5L1020.0,9.8L1024.6,10.1L1029.2,12.3L1033.8,11.8L1038.5,9.8L1043.1,9.0L1047.7,10.7L1052.3,10.5L1056.9,12.6L1061.5,13.9L1066.2,12.6L1070.8,12.4L1075.4,15.7L1080.0,14.9L1084.6,14.8L1089.2,11.9L1093.8,11.3L1098.5,13.1L1103.1,13.4L1107.7,14.6L1112.3,15.9L1116.9,16.8L1121.5,15.8L1126.2,17.9L1130.8,18.6L1135.4,19.7L1140.0,19.5L1144.6,19.7L1149.2,19.1L1153.8,19.8L1158.5,20.5L1163.1,20.2L1167.7,20.0L1172.3,20.2L1176.9,20.2L1181.5,20.2L1186.2,20.0L1190.8,20.0L1195.4,20.0L1200.0,20.0 L1200,44 Z" fill="#000"/></svg>
